<?xml version="1.0" encoding="utf-8"?>
<!-- Svg Vector Icons : http://www.onlinewebfonts.com/icon -->
<!DOCTYPE svg PUBLIC "-//W3C//DTD SVG 1.1//EN" "http://www.w3.org/Graphics/SVG/1.1/DTD/svg11.dtd">
<svg version="1.1" xmlns="http://www.w3.org/2000/svg" xmlns:xlink="http://www.w3.org/1999/xlink" x="0px" y="0px" viewBox="0 0 256 256" enable-background="new 0 0 256 256" xml:space="preserve">
<metadata> Svg Vector Icons : http://www.onlinewebfonts.com/icon </metadata>
<g><g><path fill="#000000" d="M84.5,26.5H61c-2.2,0-3.9,1.7-3.9,3.9s1.8,3.9,3.9,3.9h23.5c2.2,0,4-1.7,4-3.9C88.5,28.2,86.7,26.5,84.5,26.5z M72.8,236.5c6.5,0,11.8-5.2,11.8-11.7c0-6.4-5.3-11.6-11.8-11.6c-6.5,0-11.8,5.2-11.8,11.6C61,231.3,66.3,236.5,72.8,236.5z M90.2,44v4.6H19.4v154.1h104V180l9.4-9.3v54.2c0,10.7-8.8,19.8-19.6,19.8H29.6c-10.8,0-19.6-9.1-19.6-19.8V30.7c0-10.7,8.8-19.4,19.6-19.4h83.6c7.1,0,13.2,3.8,16.7,9.3h-16C100.8,20.7,90.2,31.1,90.2,44z M213.4,68.7c3.7,0,6.5,1.1,7.9,1.8l1.9-6.9c-2.3-1-5.4-1.9-9.7-1.9c-8.9,0-14.4,4.8-14.4,11.3c0,5.5,4.2,9,10.5,11.2c4.6,1.6,6.4,2.9,6.4,5.3c0,2.5-2.1,4.1-6,4.1c-3.7,0-7.3-1.2-9.6-2.3l-1.8,7c2.1,1.2,6.5,2.3,10.8,2.3c10.5,0,15.4-5.4,15.4-11.7c0-5.3-3.1-8.8-9.9-11.2c-5-1.9-7.1-2.9-7.1-5.3C207.9,70.4,209.7,68.7,213.4,68.7z M191.4,62.3h-11.3l-4,12.6c-1.3,4.2-2.6,9.2-3.6,13.5h-0.2c-0.8-4.4-2-9.1-3.2-13.5l-3.8-12.6h-11.5l-2.4,37.7h8l0.7-14.4c0.2-4.7,0.5-10.5,0.7-15.6h0.1c1,4.9,2.2,10.3,3.4,14.8l4.1,14.5h6.7l4.7-14.7c1.5-4.4,3.1-9.8,4.3-14.6h0.1c0,5.5,0.1,11,0.3,15.5l0.6,14.5h8.4L191.4,62.3z M134.9,68.7c3.7,0,6.4,1.1,7.9,1.8l1.9-6.9c-2.3-1-5.4-1.9-9.7-1.9c-9,0-14.4,4.8-14.4,11.3c0,5.5,4.2,9,10.5,11.2c4.6,1.6,6.4,2.9,6.4,5.3c0,2.5-2.1,4.1-6.1,4.1c-3.7,0-7.3-1.2-9.5-2.3l-1.8,7c2.2,1.2,6.5,2.3,10.8,2.3c10.5,0,15.4-5.4,15.4-11.7c0-5.3-3.1-8.8-9.9-11.2c-5-1.9-7.1-2.9-7.1-5.3C129.4,70.4,131.2,68.7,134.9,68.7z M222.4,128.1h-56L128,158.7v-30.6h-4.7c-13,0-23.6-10.5-23.6-23.3V53.4c0-12.9,10.5-23.4,23.6-23.4h99.2c13,0,23.6,10.5,23.6,23.4v51.4C246,117.6,235.5,128.1,222.4,128.1z"/></g></g>
</svg>